<svg width="64" height="64" viewBox="0 0 64 64" fill="none" xmlns="http://www.w3.org/2000/svg">
  <!-- 猫咪头部（放大） -->
  <ellipse cx="32" cy="38" rx="22" ry="19" fill="#FFD966"/>
  <!-- 左耳朵（放大） -->
  <polygon points="13,28 2,4 26,22" fill="#FFD966"/>
  <polygon points="13,28 7,12 20,21" fill="#FFB366"/>
  <!-- 右耳朵（放大） -->
  <polygon points="51,28 62,4 38,22" fill="#FFD966"/>
  <polygon points="51,28 57,12 44,21" fill="#FFB366"/>
  <!-- 脸颊腮红 -->
  <ellipse cx="18" cy="46" rx="3.5" ry="1.5" fill="#FFB6B6"/>
  <ellipse cx="46" cy="46" rx="3.5" ry="1.5" fill="#FFB6B6"/>
  <!-- 眼睛 -->
  <ellipse cx="25" cy="38" rx="3" ry="4" fill="#333"/>
  <ellipse cx="39" cy="38" rx="3" ry="4" fill="#333"/>
  <!-- 鼻子 -->
  <ellipse cx="32" cy="44" rx="1.8" ry="1.2" fill="#FF8888"/>
  <!-- 嘴巴 -->
  <path d="M32 45 Q34 48 36 45" stroke="#B35C44" stroke-width="1.2" fill="none"/>
  <path d="M32 45 Q30 48 28 45" stroke="#B35C44" stroke-width="1.2" fill="none"/>
</svg>